<?xml version="1.0" encoding="UTF-8"?><svg id="_レイヤー_1" xmlns="http://www.w3.org/2000/svg" width="300" height="300" viewBox="0 0 300 300"><defs><style>.cls-1{fill:#eaeaea;}.cls-2{fill:#bbb;}</style></defs><rect class="cls-1" width="300" height="300"/><path class="cls-2" d="M184.6,181.87h-69.2c-4.49,0-7.98-3.49-7.98-7.97v-47.8c0-4.32,3.49-7.97,7.98-7.97h69.2c4.32,0,7.98,3.65,7.98,7.97v47.8c0,4.48-3.66,7.97-7.98,7.97ZM126.05,127.43c-5.16,0-9.31,4.32-9.31,9.29s4.16,9.3,9.31,9.3,9.31-4.15,9.31-9.3-4.32-9.29-9.31-9.29ZM118.06,171.25h63.87v-18.59l-14.64-14.44c-.83-.83-2-.83-2.83,0l-22.46,22.41-9.31-9.13c-.83-.83-2-.83-2.83,0l-11.81,11.78v7.97Z"/></svg>